<svg width="30" height="30" viewBox="0 0 30 30" fill="none" xmlns="http://www.w3.org/2000/svg">
<path d="M12.3347 2.15862C13.4527 -0.00530802 16.5473 -0.00530414 17.6653 2.15862L19.9433 6.56777C20.363 7.37996 21.13 7.95649 22.0269 8.13377L26.9521 9.10734C29.233 9.55819 30.1562 12.3201 28.6051 14.0519L24.9822 18.0967C24.4045 18.7417 24.1337 19.6049 24.2393 20.4643L24.8972 25.8156C25.1893 28.1922 22.7164 29.9364 20.5757 28.8638L16.3439 26.7434C15.4981 26.3196 14.5019 26.3196 13.6561 26.7434L9.42434 28.8638C7.28357 29.9364 4.81068 28.1922 5.10283 25.8156L5.76066 20.4643C5.86631 19.6049 5.59546 18.7417 5.01776 18.0967L1.39494 14.0519C-0.156247 12.3201 0.767027 9.5582 3.04788 9.10734L7.97313 8.13377C8.86997 7.95649 9.63703 7.37996 10.0567 6.56777L12.3347 2.15862Z" fill="#FFB648"/>
</svg>
